HIERARCHY
ROOT butt
{
	OFFSET 0.000000 0.000000 0.000000
	CHANNELS 6 Xposition Yposition Zposition Xrotation Yrotation Zrotation
	JOINT lhip
	{
		OFFSET 0.583813 0.718669 -0.323938
		CHANNELS 6 Xposition Yposition Zposition Xrotation Yrotation Zrotation
		JOINT lknee
		{
			OFFSET 0.553245 0.216339 -1.020714
			CHANNELS 6 Xposition Yposition Zposition Xrotation Yrotation Zrotation
			JOINT lankle
			{
				OFFSET -0.339279 0.080945 -1.465530
				CHANNELS 6 Xposition Yposition Zposition Xrotation Yrotation Zrotation
				End Site
				{
					OFFSET 0.537810 -0.043777 -0.195635
				}
			}
		}
	}
	JOINT rhip
	{
		OFFSET 0.339136 -0.940503 -0.149914
		CHANNELS 6 Xposition Yposition Zposition Xrotation Yrotation Zrotation
		JOINT rknee
		{
			OFFSET 0.601234 -0.223249 -1.073499
			CHANNELS 6 Xposition Yposition Zposition Xrotation Yrotation Zrotation
			JOINT rankle
			{
				OFFSET -0.245263 -0.041399 -1.532960
				CHANNELS 6 Xposition Yposition Zposition Xrotation Yrotation Zrotation
				End Site
				{
					OFFSET 0.653910 0.024899 -0.232875
				}
			}
		}
	}
	JOINT abdomen
	{
		OFFSET 0.907647 0.026340 0.317664
		CHANNELS 6 Xposition Yposition Zposition Xrotation Yrotation Zrotation
		JOINT neck
		{
			OFFSET 1.496963 0.039292 -0.038456
			CHANNELS 6 Xposition Yposition Zposition Xrotation Yrotation Zrotation
			End Site
			{
				OFFSET 2.739308 -0.092250 1.009232
			}
		}
		JOINT lshldr
		{
			OFFSET 1.132326 0.559775 -0.444207
			CHANNELS 6 Xposition Yposition Zposition Xrotation Yrotation Zrotation
			JOINT lelbow
			{
				OFFSET -0.149559 0.286290 -0.912030
				CHANNELS 6 Xposition Yposition Zposition Xrotation Yrotation Zrotation
				JOINT lwrist
				{
					OFFSET 0.485181 -0.390159 0.265472
					CHANNELS 6 Xposition Yposition Zposition Xrotation Yrotation Zrotation
					End Site
					{
						OFFSET 0.527290 -0.521758 -0.124363
					}
				}
			}
		}
		JOINT rshldr
		{
			OFFSET 1.100885 -0.503887 -0.296241
			CHANNELS 6 Xposition Yposition Zposition Xrotation Yrotation Zrotation
			JOINT relbow
			{
				OFFSET -0.198937 -0.642069 -0.689888
				CHANNELS 6 Xposition Yposition Zposition Xrotation Yrotation Zrotation
				JOINT rwrist
				{
					OFFSET 0.636091 0.394674 0.001069
					CHANNELS 6 Xposition Yposition Zposition Xrotation Yrotation Zrotation
					End Site
					{
						OFFSET 0.557086 0.133476 -0.377524
					}
				}
			}
		}
	}
}
MOTION
Frames: 5
Frame Time: 0.033333
-0.111211 0.000000 -0.123525 0.000001 16.498937 0.000002 0.583813 0.718669 -0.323938 -0.000001 -0.000001 -0.000001 0.553245 0.216339 -1.020714 -0.000000 -0.000001 -0.000003 -0.339279 0.080945 -1.465531 0.000002 0.000004 0.000001 0.339136 -0.940503 -0.149914 -0.000002 -0.000004 0.000004 0.601234 -0.223249 -1.073499 -0.000001 -0.000000 0.000004 -0.245263 -0.041399 -1.532960 0.000000 -0.000002 0.000000 0.907647 0.026340 0.317664 0.000001 -0.000003 0.000001 1.496964 0.039292 -0.038456 -0.000001 -0.000002 -0.000001 1.132326 0.559775 -0.444207 -0.000001 0.000001 -0.000000 -0.149559 0.286290 -0.912030 0.000002 -0.000004 -0.000003 0.485181 -0.390159 0.265472 -0.000002 -0.000001 -0.000003 1.100885 -0.503887 -0.296241 -0.000001 0.000004 -0.000000 -0.198937 -0.642069 -0.689888 0.000002 0.000000 -0.000000 0.636091 0.394674 0.001069 0.000002 -0.000002 -0.000000 
-0.110902 0.011049 -0.126765 -0.692472 16.643429 0.214141 0.583813 0.718669 -0.323938 0.217900 0.326893 0.186306 0.553245 0.216339 -1.020714 0.083367 0.242319 0.159175 -0.339279 0.080945 -1.465530 -0.000004 0.000001 -0.000002 0.339136 -0.940503 -0.149914 0.072678 0.144029 0.019851 0.601234 -0.223249 -1.073499 0.062270 0.246480 0.052769 -0.245263 -0.041399 -1.532960 0.000004 -0.000000 0.000001 0.907647 0.026340 0.317664 2.268375 4.180127 2.374941 1.496963 0.039292 -0.038456 0.419094 -4.865665 -2.228203 1.132326 0.559775 -0.444207 0.000000 0.000001 -0.000001 -0.149559 0.286290 -0.912030 -0.000000 -0.000001 -0.000001 0.485181 -0.390159 0.265472 0.000000 -0.000004 0.000003 1.100885 -0.503887 -0.296241 0.000000 0.000003 0.000001 -0.198937 -0.642069 -0.689888 0.000003 -0.000002 -0.000000 0.636091 0.394674 0.001069 0.000000 -0.000001 -0.000000 
-0.110001 0.043164 -0.136955 -2.578385 17.013475 0.800920 0.583813 0.718669 -0.323938 0.841161 1.272093 0.711264 0.553245 0.216339 -1.020714 0.322707 0.943347 0.612163 -0.339279 0.080945 -1.465530 -0.000000 0.000000 0.000001 0.339136 -0.940503 -0.149914 0.280090 0.559406 0.075340 0.601234 -0.223249 -1.073499 0.241316 0.956683 0.201032 -0.245263 -0.041399 -1.532960 0.000002 0.000001 -0.000000 0.907647 0.026340 0.317664 6.114673 15.077101 8.049095 1.496963 0.039292 -0.038456 0.330651 -16.493442 -7.643147 1.132326 0.559775 -0.444207 0.000002 0.000001 -0.000000 -0.149559 0.286290 -0.912030 -0.000000 0.000004 -0.000003 0.485181 -0.390159 0.265472 -0.000002 0.000001 0.000000 1.100885 -0.503887 -0.296241 0.000001 0.000003 -0.000003 -0.198937 -0.642069 -0.689888 -0.000001 0.000002 -0.000000 0.636091 0.394674 0.001069 -0.000001 -0.000003 0.000002 
-0.108554 0.094797 -0.154798 -5.373154 17.499273 1.677702 0.583813 0.718669 -0.323938 1.819842 2.786753 1.512442 0.553245 0.216339 -1.020714 0.700662 2.068074 1.316444 -0.339279 0.080945 -1.465530 -0.000001 0.000003 -0.000002 0.339136 -0.940503 -0.149914 0.605984 1.220983 0.159500 0.601234 -0.223249 -1.073499 0.525434 2.087652 0.425357 -0.245263 -0.041399 -1.532960 0.000003 0.000001 0.000000 0.907647 0.026340 0.317664 7.294199 29.353452 15.708298 1.496964 0.039292 -0.038456 -2.145932 -30.234369 -14.975591 1.132326 0.559775 -0.444207 -0.000003 0.000000 0.000001 -0.149559 0.286290 -0.912030 -0.000001 0.000003 -0.000001 0.485181 -0.390159 0.265472 0.000003 -0.000001 -0.000003 1.100885 -0.503887 -0.296241 -0.000002 0.000005 0.000003 -0.198937 -0.642069 -0.689888 0.000004 -0.000002 0.000002 0.636091 0.394674 0.001069 -0.000000 -0.000001 -0.000000 
-0.106602 0.164399 -0.180998 -8.788112 17.992851 2.754894 0.583813 0.718669 -0.323938 3.101648 4.825035 2.517130 0.553245 0.216339 -1.020714 1.199047 3.584690 2.224159 -0.339279 0.080945 -1.465530 0.000000 0.000002 -0.000001 0.339136 -0.940503 -0.149914 1.033894 2.103464 0.264603 0.601234 -0.223249 -1.073499 0.903323 3.597079 0.702210 -0.245263 -0.041399 -1.532960 0.000004 0.000000 0.000002 0.907647 0.026340 0.317664 3.990594 41.980856 24.561386 1.496963 0.039292 -0.038456 -7.377715 -41.310333 -22.995975 1.132326 0.559775 -0.444207 0.000001 -0.000002 -0.000000 -0.149559 0.286290 -0.912030 -0.000000 -0.000005 -0.000003 0.485181 -0.390159 0.265472 -0.000004 0.000000 -0.000002 1.100885 -0.503887 -0.296241 -0.000001 -0.000001 0.000002 -0.198937 -0.642069 -0.689888 0.000001 0.000000 0.000002 0.636091 0.394674 0.001069 -0.000003 -0.000002 0.000001 
